<svg xmlns="http://www.w3.org/2000/svg" width="200" height="200" viewBox="0 0 200 200">
  <rect width="100%" height="100%" fill="none" />
  <!-- Simple QR-like pattern placeholder -->
  <rect x="10" y="10" width="40" height="40" fill="#0a8f6a" />
  <rect x="150" y="10" width="40" height="40" fill="#0a8f6a" />
  <rect x="10" y="150" width="40" height="40" fill="#0a8f6a" />

  <rect x="60" y="60" width="20" height="20" fill="#0a8f6a" />
  <rect x="90" y="60" width="20" height="20" fill="#0a8f6a" />
  <rect x="120" y="60" width="20" height="20" fill="#0a8f6a" />

  <rect x="60" y="90" width="20" height="20" fill="#0a8f6a" />
  <rect x="90" y="90" width="20" height="20" fill="#0a8f6a" />
  <rect x="120" y="90" width="20" height="20" fill="#0a8f6a" />

  <rect x="60" y="120" width="20" height="20" fill="#0a8f6a" />
  <rect x="90" y="120" width="20" height="20" fill="#0a8f6a" />
  <rect x="120" y="120" width="20" height="20" fill="#0a8f6a" />

  <rect x="140" y="140" width="10" height="10" fill="#0a8f6a" />
  <rect x="30" y="30" width="10" height="10" fill="#ffffff" />
</svg>